<?xml version="1.0" standalone="no"?>
<!DOCTYPE svg PUBLIC "-//W3C//DTD SVG 20010904//EN"
        "http://www.w3.org/TR/2001/REC-SVG-20010904/DTD/svg10.dtd">
<svg version="1.0" xmlns="http://www.w3.org/2000/svg"
     width="512.000000pt" height="512.000000pt" viewBox="0 0 512.000000 512.000000"
     preserveAspectRatio="xMidYMid meet">

    <g transform="translate(0.000000,512.000000) scale(0.100000,-0.100000)"
       fill="#000000" stroke="none">
        <path d="M0 2560 l0 -2560 2560 0 2560 0 0 2560 0 2560 -2560 0 -2560 0 0
-2560z m1526 1870 c67 -32 204 -173 282 -290 70 -105 129 -221 191 -378 78
-196 117 -254 198 -293 45 -22 48 -22 173 -9 121 12 366 9 446 -6 28 -5 32 -3
38 21 9 36 88 112 139 134 111 48 194 35 343 -54 107 -64 169 -85 254 -85 79
0 176 -18 232 -42 66 -28 145 -116 192 -214 95 -198 114 -230 158 -276 26 -27
63 -55 83 -64 59 -24 42 -54 -59 -100 -90 -41 -206 -45 -309 -10 -42 14 -80
26 -82 26 -3 0 -5 -11 -5 -25 0 -38 -39 -133 -69 -168 l-27 -32 7 -135 c5
-101 14 -156 33 -220 82 -269 85 -349 18 -449 -22 -34 -46 -78 -53 -98 -7 -21
-22 -56 -33 -78 -19 -36 -21 -57 -21 -205 0 -161 -1 -166 -29 -223 -21 -45
-43 -69 -87 -102 -95 -70 -154 -88 -285 -89 l-111 -1 -29 -31 c-39 -41 -118
-81 -212 -105 -96 -25 -142 -20 -238 26 -40 19 -85 35 -101 35 -16 0 -61 -15
-100 -34 -97 -47 -140 -52 -235 -27 -104 27 -180 65 -218 107 l-30 35 -68 -6
c-89 -9 -171 7 -259 50 -132 65 -190 163 -183 310 9 197 9 202 -42 314 -26 57
-60 120 -75 139 -35 46 -43 155 -19 260 9 39 16 84 16 100 0 16 -25 112 -55
213 -79 263 -95 349 -94 510 1 119 -3 153 -36 309 -36 169 -38 185 -48 480
-14 419 -13 446 7 510 44 132 125 242 209 281 54 25 125 21 193 -11z"/>
        <path d="M1327 4204 c-33 -33 -58 -101 -87 -234 -20 -93 -22 -122 -17 -255 5
-128 46 -513 63 -596 l5 -27 42 23 c52 28 98 39 136 30 l28 -6 -62 -62 c-85
-86 -139 -195 -137 -277 3 -88 55 -242 93 -274 17 -14 35 -26 40 -26 14 0 68
120 114 250 64 182 109 266 184 339 36 37 79 76 96 87 l30 21 -56 64 c-108
123 -125 184 -121 434 l3 180 -43 109 c-50 126 -93 182 -170 220 -67 34 -108
34 -141 0z"/>
        <path d="M2505 3384 c-38 -50 -137 -111 -317 -198 -84 -40 -163 -84 -174 -97
-30 -33 -44 -82 -44 -148 0 -125 70 -189 238 -218 128 -22 162 -45 203 -137
38 -87 7 -213 -69 -276 -21 -17 -82 -54 -137 -82 -128 -66 -211 -146 -274
-267 -29 -55 -38 -82 -28 -78 142 54 164 68 246 153 98 101 162 145 264 179
129 43 262 30 391 -37 41 -22 94 -66 161 -133 94 -94 107 -103 185 -133 46
-17 85 -30 87 -29 1 2 -19 41 -45 87 -68 121 -144 194 -270 258 -164 85 -210
139 -220 259 -4 53 -1 70 22 117 37 75 67 94 189 118 127 25 191 58 219 111
39 77 33 192 -12 250 -13 16 -97 63 -216 121 -167 82 -203 104 -256 156 -76
73 -102 78 -143 24z"/>
        <path d="M3310 3298 c-19 -5 -42 -16 -50 -24 -13 -13 -8 -21 40 -67 122 -117
216 -249 321 -456 63 -122 64 -123 81 -101 40 49 62 186 34 209 -8 7 -40 50
-71 96 -31 46 -72 98 -91 114 -36 33 -43 55 -19 65 22 8 89 -56 153 -148 111
-157 166 -191 317 -191 80 0 109 4 145 21 l44 20 -114 13 c-148 17 -254 44
-303 78 -24 17 -58 59 -90 111 -60 99 -126 161 -228 218 -83 47 -118 56 -169
42z"/>
        <path d="M1710 2305 c-37 -45 108 -137 192 -121 61 12 65 20 33 66 -16 23 -41
48 -56 56 -38 19 -153 19 -169 -1z"/>
        <path d="M3213 2274 c-24 -26 -43 -53 -43 -60 0 -19 72 -38 113 -30 51 10 131
66 135 95 5 33 -12 41 -92 41 l-70 0 -43 -46z"/>
        <path d="M1474 2226 c-36 -31 -44 -46 -67 -128 -54 -193 -48 -250 45 -407 73
-123 91 -189 77 -284 -22 -153 -7 -219 68 -293 35 -36 110 -76 166 -89 l27 -7
-35 52 c-71 105 -79 226 -25 380 18 52 36 129 41 170 l8 74 -68 106 c-101 156
-144 249 -180 393 l-16 68 -41 -35z"/>
        <path d="M3605 2233 c-31 -145 -103 -307 -201 -453 l-56 -85 5 -65 c3 -36 22
-114 42 -175 34 -101 37 -117 33 -200 -4 -90 -21 -139 -74 -212 -20 -28 -10
-29 60 -2 68 25 147 95 177 155 20 42 21 54 13 133 -19 193 -12 226 74 369 28
46 56 100 63 119 18 55 5 203 -25 299 -21 67 -32 86 -66 112 l-39 33 -6 -28z"/>
        <path d="M2440 2171 c-100 -32 -144 -62 -245 -165 -96 -98 -104 -104 -195
-139 -52 -21 -102 -43 -111 -50 -37 -29 -51 -67 -59 -164 -6 -66 -19 -127 -41
-188 -27 -76 -32 -105 -33 -190 -1 -93 1 -104 29 -153 17 -32 46 -66 71 -82
l41 -29 74 15 c151 31 273 109 445 286 l101 103 12 124 c11 120 11 125 -9 143
-14 13 -20 32 -20 63 0 34 -4 45 -15 45 -16 0 -19 -5 -29 -52 -13 -59 -108
-45 -181 26 -38 36 -45 49 -45 81 0 98 136 199 296 220 162 22 374 -106 374
-224 0 -54 -104 -141 -169 -141 -33 0 -61 18 -61 40 0 29 -11 50 -26 50 -10 0
-14 -14 -14 -49 0 -39 -5 -53 -20 -64 -24 -16 -40 -96 -40 -194 0 -52 3 -63
17 -63 9 0 64 -49 122 -108 114 -117 203 -188 292 -232 81 -41 177 -66 236
-61 7 1 31 17 52 36 96 87 111 215 47 413 -22 69 -36 134 -36 165 -1 76 -18
138 -47 169 -15 16 -66 42 -122 64 -92 35 -99 40 -186 129 -49 51 -112 107
-140 125 -108 67 -253 87 -365 51z"/>
        <path d="M2424 1245 l-115 -115 39 0 c29 0 54 10 92 36 94 65 145 66 233 6 36
-25 66 -37 99 -40 l49 -5 -117 117 c-84 83 -123 116 -141 116 -17 0 -56 -33
-139 -115z"/>
        <path d="M2524 1158 c-12 -7 -41 -26 -64 -43 -40 -27 -51 -30 -132 -32 -80 -2
-95 -5 -166 -41 -42 -21 -88 -41 -102 -45 l-24 -6 24 -27 c34 -36 101 -68 187
-89 84 -20 108 -16 207 31 91 44 131 44 224 -1 97 -46 123 -49 214 -26 88 23
144 49 176 83 l22 24 -57 24 c-31 13 -77 35 -102 49 -39 22 -55 25 -122 22
-83 -3 -121 9 -170 56 -31 29 -86 39 -115 21z"/>
    </g>
</svg>
